<svg id="Capa_1" enable-background="new 0 0 497 497" height="512" viewBox="0 0 497 497" width="512" xmlns="http://www.w3.org/2000/svg"><g><path d="m403.942 57.338c9.111-9.111 21.506-12.928 33.373-11.461 5.788.716 10.384 5.312 11.1 11.1 1.467 11.868-2.35 24.262-11.461 33.373-11.441 11.441-28.06 14.534-42.311 9.299-5.235-14.252-2.142-30.87 9.299-42.311z" fill="#60d9a7"/><g><path d="m410.336 123.242c.123-.661 2.992-16.408.23-35.427-2.799-19.267-10.304-35.383-21.986-47.5-6.914-7.172-18.785-5.753-23.959 2.76-3.564 5.863-2.845 13.447 1.92 18.383 20.087 20.807 13.864 55.783 13.79 56.178z" fill="#ed9b83"/></g><path d="m200.9 134.154-82.265-19.729-82.265 19.729c-16.559 0-29.982 13.424-29.982 29.982 0 16.559 13.424 29.982 29.982 29.982l82.265 28.594 82.265-28.594c16.559 0 29.982-13.424 29.982-29.982 0-16.558-13.423-29.982-29.982-29.982z" fill="#ed9b83"/><path d="m42.034 132.795-5.665 1.358c-16.559 0-29.982 13.424-29.982 29.982 0 16.559 13.424 29.982 29.982 29.982l36.884 12.82c-16.253-19.087-27.233-43.563-31.219-74.142z" fill="#e7886e"/><path d="m159.329 18.458h-81.389c-39.518 0-71.553 32.036-71.553 71.553v14.409c0 16.421 13.312 29.733 29.733 29.733h165.03c16.421 0 29.733-13.312 29.733-29.733v-14.408c-.001-39.518-32.036-71.554-71.554-71.554z" fill="#f8d070"/><g><g><path d="m60.856 90.364c-4.143 0-7.5-3.358-7.5-7.5v-11.103c0-4.142 3.357-7.5 7.5-7.5s7.5 3.358 7.5 7.5v11.103c0 4.142-3.357 7.5-7.5 7.5z" fill="#423e4f"/></g><g><path d="m176.413 90.364c-4.143 0-7.5-3.358-7.5-7.5v-11.103c0-4.142 3.357-7.5 7.5-7.5s7.5 3.358 7.5 7.5v11.103c0 4.142-3.358 7.5-7.5 7.5z" fill="#423e4f"/></g><g><path d="m118.634 96.973c-8.005 0-15.618-3.467-20.887-9.512-2.721-3.123-2.396-7.86.727-10.582 3.122-2.721 7.859-2.397 10.582.726 2.419 2.776 5.91 4.367 9.578 4.367 3.669 0 7.16-1.592 9.579-4.367 2.722-3.123 7.46-3.448 10.582-.726 3.123 2.722 3.447 7.459.727 10.582-5.269 6.045-12.882 9.512-20.888 9.512z" fill="#423e4f"/></g></g><path d="m211.755 194.119h-186.241c-10.563 0-19.127 8.563-19.127 19.127 0 21.02 17.04 38.061 38.061 38.061l74.187 19.433 74.187-19.433c21.02 0 38.061-17.04 38.061-38.061-.001-10.564-8.564-19.127-19.128-19.127z" fill="#f8d070"/><path d="m439.685 251.307c4.903-1.907 9.58-4.528 13.857-7.842 83.231-64.487 37.876-190.867-59.762-149.641-97.638-41.227-142.993 85.154-59.762 149.641 4.277 3.314 8.954 5.935 13.857 7.842l45.905 33.718z" fill="#ff748f"/><path d="m63.679 194.119h-38.165c-10.563 0-19.127 8.563-19.127 19.127 0 21.021 17.041 38.061 38.061 38.061l74.187 19.433 50.18-13.144c-44.994-8.601-82.489-28.743-105.136-63.477z" fill="#f2c13b"/><path d="m322.733 148.007c0-21.332 5.234-41.484 14.521-59.343-54.919 17.074-67.962 104.651-3.235 154.801 4.277 3.314 8.954 5.935 13.857 7.842l45.905 33.718 17.665-12.975c-51.867-19.06-88.713-67.404-88.713-124.043z" fill="#fd5f7e"/><path d="m472.822 251.307h-449.48c-14.213 0-24.31 13.837-19.975 27.373 7.646 23.87 29.838 40.064 54.902 40.064h379.624c25.064 0 47.257-16.195 54.902-40.064 4.337-13.536-5.761-27.373-19.973-27.373z" fill="#90d3f1"/><path d="m307.142 266.98c-20.842-54.024-97.278-54.024-118.12 0l-65.396 169.51h248.912z" fill="#59c2e7"/><circle cx="248.082" cy="308.569" fill="#90d3f1" r="27.046"/><g><g><path d="m450.328 173.156c-4.143 0-7.5-3.358-7.5-7.5v-10.866c0-4.142 3.357-7.5 7.5-7.5s7.5 3.358 7.5 7.5v10.866c0 4.142-3.358 7.5-7.5 7.5z" fill="#423e4f"/></g><g><path d="m337.233 173.156c-4.143 0-7.5-3.358-7.5-7.5v-10.866c0-4.142 3.357-7.5 7.5-7.5s7.5 3.358 7.5 7.5v10.866c0 4.142-3.357 7.5-7.5 7.5z" fill="#423e4f"/></g><g><path d="m393.781 179.624c-7.881 0-15.376-3.413-20.563-9.364-2.722-3.123-2.396-7.86.727-10.582s7.859-2.396 10.582.726c2.337 2.682 5.71 4.219 9.254 4.219s6.917-1.538 9.254-4.219c2.722-3.123 7.46-3.448 10.582-.726 3.122 2.721 3.448 7.459.727 10.582-5.187 5.951-12.682 9.364-20.563 9.364z" fill="#423e4f"/></g></g><path d="m190.522 373.651c0-59.259 37.973-110.662 93.555-136.213-31.253-21.364-79.212-11.523-95.055 29.542l-65.396 169.51h82.065c-9.745-19.178-15.169-40.448-15.169-62.839z" fill="#34b5e1"/><path d="m495.229 442.007c-7.19-27.995-32.425-47.568-61.329-47.568h-371.637c-28.903 0-54.138 19.573-61.329 47.568-4.754 18.51 9.226 36.534 28.337 36.534h437.621c19.112.001 33.091-18.024 28.337-36.534z" fill="#90d3f1"/><path d="m40.356 106.115c0-32.36 11.588-62.425 31.437-87.376-36.638 3.12-65.406 33.827-65.406 71.273v14.409c0 16.421 13.312 29.733 29.733 29.733h6.099c-1.219-8.83-1.863-18.163-1.863-28.039z" fill="#f2c13b"/></g></svg>