<svg height="512pt" viewBox="-53 0 512 512.00126" width="512pt" xmlns="http://www.w3.org/2000/svg"><path d="m406.253906 46.441406v53.355469l-203.125 79.136719-203.128906-79.132813v-63.136719c0-14.121093 11.453125-25.574218 25.578125-25.574218h345.324219c19.527344 0 35.351562 15.824218 35.351562 35.351562zm0 0" fill="#43596b"/><path d="m61.25 392.542969v113.9375c0 4.265625 4.640625 6.914062 8.316406 4.746093l38.398438-22.671874c1.730468-1.019532 3.875-1.019532 5.605468 0l38.402344 22.671874c3.671875 2.171876 8.3125-.480468 8.3125-4.746093v-113.9375zm0 0" fill="#ff7ebf"/><path d="m406.253906 258.066406v132.996094c0 19.527344-15.824218 35.351562-35.351562 35.351562h-345.328125c-14.121094 0-25.574219-11.449218-25.574219-25.574218v-142.773438l203.128906-79.132812zm0 0" fill="#43596b"/><g fill="#2d3c50"><path d="m30.90625 400.839844v-142.773438l187.675781-73.113281-15.453125-6.019531-203.128906 79.132812v142.773438c0 14.125 11.453125 25.578125 25.578125 25.578125h30.902344c-14.121094-.003907-25.574219-11.453125-25.574219-25.578125zm0 0"/><path d="m30.90625 99.800781v-63.136719c0-14.125 11.453125-25.574218 25.574219-25.574218h-30.902344c-14.125 0-25.578125 11.449218-25.578125 25.574218v63.132813l203.128906 79.136719 15.453125-6.019532zm0 0"/><path d="m313.953125 426.414062h56.949219c1.617187 0 3.207031-.117187 4.765625-.328124v-179.933594l-61.710938 1.175781v179.085937zm0 0"/></g><path d="m0 99.800781h406.253906v158.265625h-406.253906zm0 0" fill="#e5e8ec"/><path d="m0 99.800781h30.90625v158.265625h-30.90625zm0 0" fill="#dadadc"/><path d="m344.804688 99.800781h30.90625v158.265625h-30.90625zm0 0" fill="#dadadc"/><path d="m333.433594 0h-28.75c-6.261719 0-11.332032 5.074219-11.332032 11.332031v415.082031c0 6.261719 5.070313 11.332032 11.332032 11.332032h28.75c6.257812 0 11.328125-5.070313 11.328125-11.332032v-415.082031c0-6.257812-5.070313-11.332031-11.328125-11.332031zm0 0" fill="#ff7ebf"/><path d="m61.25 189.347656c-4.269531 0-7.726562-3.460937-7.726562-7.726562v-15.175782c0-4.265624 3.457031-7.726562 7.726562-7.726562s7.726562 3.460938 7.726562 7.726562v15.175782c0 4.265625-3.457031 7.726562-7.726562 7.726562zm0 0" fill="#2d3c50"/><path d="m228.933594 189.347656c-4.269532 0-7.726563-3.460937-7.726563-7.726562v-15.175782c0-4.265624 3.457031-7.726562 7.726563-7.726562 4.265625 0 7.726562 3.460938 7.726562 7.726562v15.175782c0 4.265625-3.460937 7.726562-7.726562 7.726562zm0 0" fill="#2d3c50"/><path d="m145.089844 197.445312c-10.292969 0-19.957032-4.300781-26.507813-11.796874-2.808593-3.210938-2.480469-8.09375.730469-10.902344s8.09375-2.480469 10.902344.734375c3.621094 4.140625 9.042968 6.511719 14.875 6.511719 5.835937 0 11.257812-2.375 14.878906-6.511719 2.804688-3.214844 7.6875-3.542969 10.898438-.734375 3.214843 2.808594 3.542968 7.691406.734374 10.902344-6.550781 7.496093-16.214843 11.796874-26.511718 11.796874zm0 0" fill="#2d3c50"/><path d="m61.25 426.414062h99.035156v31.414063h-99.035156zm0 0" fill="#ff6397"/><path d="m375.753906 99.800781v-88.371093c-1.585937-.21875-3.203125-.339844-4.851562-.339844h-26.140625v88.710937zm0 0" fill="#2d3c50"/></svg>