<svg id="Capa_1" enable-background="new 0 0 497 497" height="512" viewBox="0 0 497 497" width="512" xmlns="http://www.w3.org/2000/svg"><g><path d="m397.892 139.975c-6.938-4.587-16.28-2.683-20.867 4.254-14.409 21.787-19.471 47.88-14.254 73.473l1.748 8.578c1.661 8.149 9.614 13.409 17.763 11.748s13.409-9.614 11.748-17.763l-1.749-8.578c-3.61-17.71-.106-35.767 9.865-50.844 4.587-6.938 2.682-16.281-4.254-20.868z" fill="#50e1cd"/><path d="m337.444 289.922c-8.265-4.288-26.597-4.105-32.268-9.536-47.586-45.57 3.618-128.07 64.739-95.035 5.25 2.838 11.596 2.838 16.846 0 68.405-36.972 110.085 64.303 32.471 104.571z" fill="#ff6f7f"/><path d="m64.932 121.099c13.985-47.486 31.684-77.082 31.684-77.082h91.759s17.278 28.893 31.192 75.405l-28.63 48.365h-91.587z" fill="#80d8e6"/><path d="m99.714 167.787c11.084-46.629 33.421-88.893 63.99-123.77h-67.088s-17.699 29.596-31.684 77.082l34.418 46.688z" fill="#3ccadd"/><path d="m234.184 277.1-91.689 18.372-91.688-18.372c-7.329-60.356 2.008-114.879 14.125-156 61.37.893 61.952 42.115 154.635-1.677 12.348 41.301 22.046 96.497 14.617 157.677z" fill="#fbe29f"/><path d="m309.057 190.527h-117.862c-13.744 0-24.886 11.142-24.886 24.886v3.053c0 46.291 37.526 83.818 83.817 83.818 46.291 0 83.818-37.526 83.818-83.818v-3.053c0-13.744-11.142-24.886-24.887-24.886z" fill="#ffb3dd"/><path d="m186.531 0h-88.07c-17.655 0-31.968 14.313-31.968 31.968 0 17.656 14.313 31.968 31.968 31.968h88.07c17.656 0 31.968-14.313 31.968-31.968.001-17.655-14.312-31.968-31.968-31.968z" fill="#b3e8f0"/><path d="m82.899 308.236-53.799 165.244c-3.778 11.606 4.872 23.52 17.078 23.52h30.851c7.777 0 14.67-5.005 17.078-12.4l50.841-156.162z" fill="#e27858"/><path d="m414.101 308.236 53.799 165.244c3.779 11.606-4.872 23.52-17.078 23.52h-30.851c-7.777 0-14.67-5.005-17.078-12.4l-50.841-156.162z" fill="#e27858"/><path d="m91.841 235.118c0-36.84 6.884-72.068 19.409-104.49-12.487-4.565-26.105-9.234-46.318-9.529-12.117 41.121-21.454 95.644-14.125 156l45.525 9.122c-2.949-16.589-4.491-33.666-4.491-51.103z" fill="#fccb88"/><path d="m463.973 277.103h-430.946c-17.99 0-32.573 14.583-32.573 32.573v33.386c0 17.99 14.583 32.573 32.573 32.573h430.945c17.99 0 32.573-14.583 32.573-32.573v-33.386c0-17.99-14.583-32.573-32.572-32.573z" fill="#ed9b83"/><g><g><path d="m149.678 337.712c-4.142 0-7.5-3.358-7.5-7.5v-18.989c0-4.142 3.358-7.5 7.5-7.5s7.5 3.358 7.5 7.5v18.989c0 4.142-3.358 7.5-7.5 7.5z" fill="#423e4f"/></g><g><path d="m347.322 337.712c-4.142 0-7.5-3.358-7.5-7.5v-18.989c0-4.142 3.358-7.5 7.5-7.5s7.5 3.358 7.5 7.5v18.989c0 4.142-3.358 7.5-7.5 7.5z" fill="#423e4f"/></g><g><path d="m248.5 349.016c-12.152 0-23.709-5.264-31.708-14.442-2.721-3.123-2.396-7.86.727-10.582 3.123-2.721 7.861-2.396 10.582.727 5.149 5.908 12.584 9.297 20.399 9.297s15.251-3.389 20.4-9.297c2.721-3.123 7.458-3.448 10.582-.727 3.123 2.721 3.448 7.459.727 10.582-7.999 9.178-19.556 14.442-31.709 14.442z" fill="#423e4f"/></g></g><path d="m94.877 277.103h-61.85c-17.99 0-32.573 14.583-32.573 32.573v33.386c0 17.989 14.583 32.573 32.573 32.573h95.083c-16.638-29.987-28.114-63.227-33.233-98.532z" fill="#e7886e"/><path d="m147.738 63.937c16.121-22.016 35.267-41.673 56.833-58.359-5.135-3.517-11.346-5.578-18.04-5.578h-88.07c-17.655 0-31.968 14.313-31.968 31.968 0 17.655 14.313 31.968 31.968 31.968h49.277z" fill="#80d8e6"/></g></svg>