<svg id="Capa_1" enable-background="new 0 0 512 512" height="512" viewBox="0 0 512 512" width="512" xmlns="http://www.w3.org/2000/svg"><g><path d="m295.731 65.259c28.492 28.492 38.816 68.586 42.533 95.605 2.182 15.86-11.435 29.476-27.294 27.294-27.019-3.717-67.113-14.041-95.605-42.533s-38.816-68.586-42.533-95.605c-2.182-15.86 11.434-29.476 27.294-27.294 27.019 3.717 67.112 14.041 95.605 42.533z" fill="#8de1ce"/><path d="m304.168 172.368c-3.041 0-5.902-1.863-7.027-4.879-11.038-29.575-52.442-69.599-66.316-79.821-3.335-2.457-4.046-7.152-1.589-10.487 2.458-3.335 7.152-4.046 10.487-1.589 15.361 11.317 59.177 53.71 71.471 86.652 1.449 3.881-.523 8.201-4.404 9.649-.865.322-1.751.475-2.622.475z" fill="#6fcd90"/><path d="m322.466 186.308c-11.843 0-21.443-9.6-21.443-21.443 0-33.696 9.358-63.508 27.815-88.608 14.228-19.349 33.944-35.878 58.602-49.126 10.434-5.605 23.433-1.693 29.038 8.739 5.606 10.432 1.693 23.432-8.739 29.038-42.951 23.078-63.83 55.775-63.83 99.958-.001 11.842-9.601 21.442-21.443 21.442z" fill="#d2996f"/><path d="m322.466 125.696c-4.695-3.033-9.54-5.757-14.504-8.197-4.613 14.757-6.939 30.579-6.939 47.366 0 11.843 9.6 21.443 21.443 21.443s21.443-9.6 21.443-21.443c0-21.182 4.813-39.718 14.543-55.826-12.648 3.814-24.732 9.386-35.986 16.657z" fill="#cb775a"/><path d="m132.931 246.057c0 92.843 69.779 218.756 143.131 218.756 16.786 0 27.745-1.689 39.494-9.905 4.149-2.901 9.669-2.901 13.818 0 11.749 8.216 22.708 9.905 39.494 9.905 73.353.001 143.132-125.913 143.132-218.756 0-61.953-50.223-112.176-112.176-112.176-25.465 0-48.931 8.502-67.755 22.803-5.665 4.304-13.542 4.304-19.207 0-18.823-14.302-42.29-22.803-67.754-22.803-61.954 0-112.177 50.223-112.177 112.176z" fill="#f6ee86"/><path d="m409.907 452.214c-169.868-28.961-199.451-255.29-175.699-317.804-56.838 5.481-101.277 53.372-101.277 111.648 0 92.843 69.779 218.756 143.131 218.756 16.787 0 27.745-1.689 39.494-9.905 4.149-2.901 9.669-2.901 13.818 0 11.749 8.216 22.708 9.905 39.494 9.905 13.962 0 27.793-4.573 41.039-12.6z" fill="#f2d98d"/><g><g><ellipse cx="240.417" cy="256.798" fill="#eda1ab" rx="30.274" ry="24.109"/><ellipse cx="404.514" cy="256.798" fill="#eda1ab" rx="30.274" ry="24.109"/><path d="m346.874 238.274c0-15.085-10.928-16.502-24.409-16.502-13.48 0-24.409 1.417-24.409 16.502s10.928 27.313 24.409 27.313 24.409-12.228 24.409-27.313z" fill="#4b5165"/></g><g fill="#4b5165"><path d="m245.478 235.515c-4.142 0-7.5-3.358-7.5-7.5v-12.362c0-4.142 3.358-7.5 7.5-7.5s7.5 3.358 7.5 7.5v12.362c0 4.142-3.358 7.5-7.5 7.5z"/><path d="m399.453 235.515c-4.142 0-7.5-3.358-7.5-7.5v-12.362c0-4.142 3.358-7.5 7.5-7.5s7.5 3.358 7.5 7.5v12.362c0 4.142-3.358 7.5-7.5 7.5z"/></g></g><path d="m115.735 394.085c-54.819-14.496-89.386-80.861-84.062-161.388.789-11.939 11.122-20.982 23.045-20.187 11.939.79 20.976 11.107 20.187 23.045-1.984 30.003 2.86 58.57 13.64 80.439 9.535 19.342 23.124 32.2 38.265 36.204 11.567 3.059 18.464 14.915 15.406 26.481-3.049 11.533-14.882 18.473-26.481 15.406z" fill="#8de1ce"/><path d="m142.217 378.679c3.059-11.566-3.839-23.423-15.405-26.481-15.141-4.004-28.73-16.862-38.265-36.204-5.875-11.919-9.972-25.838-12.177-40.885-15.521 5.696-28.77 15.798-38.261 29.038 12.337 46.104 40.279 80.061 77.627 89.938 11.598 3.067 23.431-3.873 26.481-15.406z" fill="#6fcd90"/><ellipse cx="176.665" cy="326.867" fill="#b0ade2" rx="55.392" ry="61.267"/><ellipse cx="310.681" cy="431.101" fill="#b0ade2" rx="55.392" ry="61.267" transform="matrix(.707 -.707 .707 .707 -213.838 345.951)"/><ellipse cx="263.933" cy="356.255" fill="#d1c4e9" rx="55.392" ry="61.267" transform="matrix(.707 -.707 .707 .707 -174.606 290.973)"/><ellipse cx="111.867" cy="359.21" fill="#d1c4e9" rx="55.392" ry="61.267" transform="matrix(.707 -.707 .707 .707 -221.234 184.312)"/><ellipse cx="55.392" cy="423.883" fill="#b0ade2" rx="55.392" ry="61.267"/><ellipse cx="219.433" cy="431.101" fill="#b0ade2" rx="55.392" ry="61.267" transform="matrix(.707 -.707 .707 .707 -240.564 281.429)"/><ellipse cx="146.629" cy="428.238" fill="#d1c4e9" rx="55.392" ry="61.267" transform="matrix(.707 -.707 .707 .707 -259.863 229.11)"/></g></svg>