<?xml version="1.0" encoding="iso-8859-1"?>
<!-- Generator: Adobe Illustrator 19.0.0, SVG Export Plug-In . SVG Version: 6.00 Build 0)  -->
<svg version="1.1" id="Capa_1" xmlns="http://www.w3.org/2000/svg" xmlns:xlink="http://www.w3.org/1999/xlink" x="0px" y="0px"
	 viewBox="0 0 512 512" style="enable-background:new 0 0 512 512;" xml:space="preserve">
<path style="fill:#E8E8E8;" d="M486.496,208.726h-35.188c-5.904,0-11.073-3.875-12.826-9.514
	c-3.471-11.16-7.938-21.88-13.297-32.058c-2.754-5.232-1.847-11.636,2.334-15.816l24.894-24.894c9.96-9.96,9.96-26.109,0-36.069
	l-30.788-30.788c-9.96-9.96-26.108-9.96-36.069,0l-24.894,24.894c-4.181,4.181-10.584,5.088-15.816,2.334
	c-10.179-5.358-20.898-9.826-32.058-13.297c-5.638-1.753-9.513-6.922-9.513-12.826V25.506c0-14.086-11.419-25.505-25.505-25.505
	h-43.541c-14.086,0-25.504,11.419-25.504,25.504v35.187c0,5.904-3.875,11.073-9.513,12.826c-11.16,3.471-21.88,7.938-32.058,13.297
	c-5.232,2.754-11.635,1.847-15.816-2.334l-24.894-24.894c-9.96-9.96-26.108-9.96-36.069,0L59.586,90.376
	c-9.96,9.96-9.96,26.109,0,36.069l24.894,24.894c4.181,4.181,5.088,10.584,2.334,15.816c-5.358,10.179-9.826,20.898-13.297,32.058
	c-1.753,5.638-6.922,9.513-12.826,9.513H25.504C11.419,208.726,0,220.145,0,234.23v43.541c0,14.086,11.419,25.504,25.504,25.504
	h35.187c5.904,0,11.073,3.875,12.826,9.513c3.471,11.16,7.938,21.88,13.297,32.058c2.754,5.232,1.847,11.636-2.334,15.816
	l-24.894,24.894c-9.96,9.96-9.96,26.109,0,36.069l30.788,30.788c9.96,9.96,26.108,9.96,36.069,0l24.894-24.894
	c4.181-4.181,10.584-5.088,15.816-2.334c10.179,5.358,20.898,9.826,32.058,13.297c5.638,1.753,9.513,6.922,9.513,12.826v35.187
	c0,14.086,11.419,25.504,25.504,25.504h43.541c14.086,0,25.504-11.419,25.504-25.504v-35.187c0-5.904,3.875-11.073,9.513-12.826
	c11.16-3.471,21.879-7.938,32.058-13.297c5.232-2.754,11.635-1.847,15.816,2.334l24.894,24.894c9.96,9.96,26.108,9.96,36.069,0
	l30.788-30.788c9.96-9.96,9.96-26.109,0-36.069l-24.894-24.894c-4.181-4.181-5.088-10.584-2.334-15.816
	c5.358-10.179,9.826-20.899,13.297-32.058c1.753-5.638,6.922-9.514,12.826-9.514h35.188c14.086,0,25.504-11.419,25.504-25.504
	v-43.541C512,220.145,500.581,208.726,486.496,208.726z M256,314.335c-32.217,0-58.334-26.117-58.334-58.334
	c0-32.217,26.117-58.334,58.334-58.334s58.334,26.117,58.334,58.334S288.216,314.335,256,314.335z"/>
<g>
	<path style="fill:#404B58;" d="M256,166.973c-49.169,0-89.028,39.859-89.028,89.028s39.859,89.028,89.028,89.028
		s89.028-39.859,89.028-89.028S305.168,166.973,256,166.973z M256,314.335c-32.217,0-58.334-26.117-58.334-58.334
		c0-32.217,26.117-58.334,58.334-58.334s58.334,26.117,58.334,58.334S288.216,314.335,256,314.335z"/>
	<path style="fill:#404B58;" d="M192.7,137.152c-4.142,0-7.5-3.358-7.5-7.5v-10.507c0-4.142,3.358-7.5,7.5-7.5s7.5,3.358,7.5,7.5
		v10.507C200.2,133.795,196.842,137.152,192.7,137.152z"/>
	<path style="fill:#404B58;" d="M319.3,137.152c-4.143,0-7.5-3.358-7.5-7.5v-10.507c0-4.142,3.357-7.5,7.5-7.5s7.5,3.358,7.5,7.5
		v10.507C326.8,133.795,323.442,137.152,319.3,137.152z"/>
	<path style="fill:#404B58;" d="M256,145.221c-8.564,0-16.707-3.709-22.343-10.175c-2.722-3.122-2.396-7.86,0.726-10.581
		c3.122-2.722,7.86-2.397,10.582,0.726c2.787,3.197,6.809,5.031,11.035,5.031c4.227,0,8.248-1.834,11.034-5.03
		c2.72-3.124,7.457-3.448,10.582-0.727c3.122,2.721,3.448,7.459,0.727,10.581C272.707,141.512,264.563,145.221,256,145.221z"/>
</g>
<g style="opacity:0.2;">
	<circle cx="120.89" cy="256" r="14.662"/>
	<circle cx="160.47" cy="351.541" r="14.662"/>
	<circle cx="256" cy="391.11" r="14.662"/>
	<circle cx="351.54" cy="351.541" r="14.662"/>
	<circle cx="391.11" cy="256" r="14.662"/>
</g>
<path style="opacity:0.1;enable-background:new    ;" d="M151.337,84.482l-24.894-24.894c-7.58-7.58-18.741-9.385-28.034-5.428
	c2.918,1.243,5.654,3.047,8.034,5.428l31.35,31.783c4.181,4.181,10.584,5.088,15.816,2.334c1.431-0.753,2.875-1.484,4.327-2.202
	c-0.032-0.031,5.522-2.86,8.196-4.203l0,0C161.108,89.438,155.249,88.394,151.337,84.482z M153.609,418.297
	c-5.232-2.754-11.636-1.847-15.816,2.334l-31.35,31.783c-2.38,2.38-5.116,4.185-8.034,5.428c0.031-0.013,0.073,0.01,0.119,0.052
	c9.269,3.891,20.368,2.068,27.915-5.479l24.894-24.894c3.912-3.913,9.771-4.957,14.795-2.818l0,0
	c-2.675-1.343-8.228-4.172-8.196-4.203C156.484,419.781,155.04,419.05,153.609,418.297z M338.53,418.789
	c-10.179,5.358-34.582,16.223-45.742,19.693c-5.638,1.753-9.513,6.922-9.513,12.826v35.187c0,14.086-11.419,25.504-25.504,25.504h20
	c14.086,0,25.504-11.419,25.504-25.504v-35.187c0-5.904,3.875-11.073,9.513-12.826c11.16-3.471,21.879-7.938,32.058-13.297
	c5.232-2.754,11.635-1.847,15.816,2.334C348.307,414.659,343.704,416.065,338.53,418.789z M486.496,208.726h-20
	c14.086,0,25.504,11.419,25.504,25.504v43.541c0,14.086-11.419,25.504-25.504,25.504h20c14.086,0,25.504-11.419,25.504-25.504
	V234.23C512,220.145,500.581,208.726,486.496,208.726z M344.846,86.815c-10.179-5.358-20.898-9.826-32.058-13.297
	c-5.638-1.753-9.513-6.922-9.513-12.826V25.506c0-14.086-11.419-25.505-25.505-25.505h-20c14.086,0,25.504,11.419,25.504,25.504
	v35.187c0,5.904,3.875,11.073,9.513,12.826c11.16,3.471,35.563,14.335,45.742,19.693c5.174,2.724,9.777,4.131,22.132-8.731
	C356.481,88.662,350.078,89.569,344.846,86.815z M427.519,360.664c-4.181-4.181-5.088-10.584-2.334-15.816
	c5.358-10.179,9.826-20.899,13.297-32.058c1.75-5.627,6.901-9.496,12.79-9.512c0.007,0,0.013-0.002,0.02-0.002
	c-6.661,0.003-13.323,0.001-19.984,0.001c-5.904,0-11.073,3.875-12.826,9.514c-3.471,11.16-7.938,21.88-13.297,32.058
	c-2.754,5.232-1.847,11.636,2.334,15.816l24.894,24.894c9.96,9.96,9.96,26.109,0,36.069l-30.788,30.788
	c-2.38,2.38-5.116,4.185-8.034,5.428l0.001,0.001c9.293,3.956,20.453,2.151,28.033-5.428l30.788-30.788
	c9.96-9.96,9.96-26.109,0-36.069L427.519,360.664z M432.413,90.376c9.96,9.96,9.96,26.109,0,36.069l-24.894,24.894
	c-4.181,4.181-5.088,10.584-2.334,15.816c5.358,10.179,9.826,20.899,13.297,32.058c1.753,5.638,6.922,9.514,12.826,9.514
	c6.177,0,12.354,0.019,18.53-0.006c0.021-0.026,0.039-0.051,0.06-0.077c-5.304-0.562-9.805-4.246-11.417-9.43
	c-3.471-11.16-7.938-21.88-13.297-32.058c-2.754-5.232-1.847-11.636,2.334-15.816l24.894-24.894c9.96-9.96,9.96-26.109,0-36.069
	l-30.788-30.788c-7.595-7.595-18.785-9.391-28.089-5.404c3.032,1.203,5.783,3.098,8.089,5.404L432.413,90.376z"/>
<g>
</g>
<g>
</g>
<g>
</g>
<g>
</g>
<g>
</g>
<g>
</g>
<g>
</g>
<g>
</g>
<g>
</g>
<g>
</g>
<g>
</g>
<g>
</g>
<g>
</g>
<g>
</g>
<g>
</g>
</svg>
