<?xml version="1.0" encoding="iso-8859-1"?>
<!-- Generator: Adobe Illustrator 19.0.0, SVG Export Plug-In . SVG Version: 6.00 Build 0)  -->
<svg version="1.1" id="Capa_1" xmlns="http://www.w3.org/2000/svg" xmlns:xlink="http://www.w3.org/1999/xlink" x="0px" y="0px"
	 viewBox="0 0 512 512" style="enable-background:new 0 0 512 512;" xml:space="preserve">
<g>
	<path style="fill:#C86D5C;" d="M406.427,492.665l-44.738-136.581l-51.052,16.723l42.267,129.038
		c1.984,6.059,7.638,10.156,14.013,10.156h25.498C402.447,511.999,409.551,502.198,406.427,492.665z"/>
	<path style="fill:#C86D5C;" d="M97.574,492.665l44.738-136.581l51.052,16.723l-42.266,129.037
		c-1.984,6.059-7.638,10.156-14.013,10.156h-25.498C101.554,511.999,94.451,502.198,97.574,492.665z"/>
</g>
<g>
	<path style="fill:#AD4F3D;" d="M361.689,356.083l-51.052,16.723l30.216,92.249c17.114-6.495,33.338-14.807,48.438-24.703
		L361.689,356.083z"/>
	<path style="fill:#AD4F3D;" d="M114.709,440.352c15.1,9.896,31.325,18.207,48.438,24.703l30.216-92.249l-51.052-16.723
		L114.709,440.352z"/>
</g>
<path style="fill:#3A484A;" d="M252.001,450.398c-121.45,0-220.257-98.808-220.257-220.257c0-121.45,98.807-220.257,220.257-220.257
	s220.257,98.807,220.257,220.257S373.451,450.398,252.001,450.398z"/>
<path style="fill:#57D0E6;" d="M252.001,391.305c-88.867,0-161.164-72.298-161.164-161.164c0-88.867,72.298-161.164,161.164-161.164
	s161.164,72.298,161.164,161.164S340.866,391.305,252.001,391.305z"/>
<path style="fill:#FD6F71;" d="M252.001,332.212c-56.282,0-102.07-45.789-102.07-102.07c0-56.282,45.788-102.07,102.07-102.07
	s102.07,45.788,102.07,102.07S308.282,332.212,252.001,332.212z"/>
<circle style="fill:#FADC60;" cx="252.003" cy="230.142" r="42.977"/>
<g>
	<path style="fill:#EFEDEE;" d="M440.739,102.589c2.229,0.109,4.402-0.729,5.98-2.308l31.207-31.207
		c4.787-4.787,1.742-12.983-5.009-13.485l-23.699-1.761l-73.159,51.832L440.739,102.589z"/>
	<path style="fill:#EFEDEE;" d="M377.667,39.517c-0.109-2.229,0.729-4.402,2.308-5.98l31.207-31.207
		c4.787-4.787,12.983-1.742,13.485,5.009l1.761,23.699l-51.831,73.159L377.667,39.517z"/>
</g>
<path style="fill:#C86D5C;" d="M449.22,38.81l-7.775-7.775c-4.146-4.146-10.87-4.146-15.017,0L252.001,207.35
	c-6.293,6.293-6.293,16.498,0,22.792l0,0c6.293,6.293,16.498,6.293,22.792,0L449.22,53.828
	C453.367,49.681,453.367,42.958,449.22,38.81z"/>
<g>
</g>
<g>
</g>
<g>
</g>
<g>
</g>
<g>
</g>
<g>
</g>
<g>
</g>
<g>
</g>
<g>
</g>
<g>
</g>
<g>
</g>
<g>
</g>
<g>
</g>
<g>
</g>
<g>
</g>
</svg>
