<svg id="Capa_1" enable-background="new 0 0 497 497" height="512" viewBox="0 0 497 497" width="512" xmlns="http://www.w3.org/2000/svg"><g><path d="m433.318 478.464-38.826-98.633-61.358 24.153 29.107 73.942c4.531 11.509 15.639 19.074 28.006 19.074h30.447c9.567 0 16.128-9.635 12.624-18.536z" fill="#5c586f"/><path d="m102.537 478.464 38.826-98.633 61.358 24.153-29.107 73.942c-4.53 11.509-15.639 19.074-28.006 19.074h-30.448c-9.566 0-16.127-9.635-12.623-18.536z" fill="#4f4c5f"/><circle cx="267.928" cy="239.311" fill="#ff748f" r="209.304"/><path d="m139.995 249.311c0-89.775 43.896-169.342 111.493-218.665-107.911 8.385-192.865 98.602-192.865 208.665 0 100.032 70.18 183.66 163.986 204.369-50.948-49.248-82.614-118.125-82.614-194.369z" fill="#fd5f7e"/><ellipse cx="267.927" cy="239.311" fill="#fff" rx="148.436" ry="148.436" transform="matrix(.707 -.707 .707 .707 -90.744 259.546)"/><ellipse cx="267.927" cy="239.311" fill="#ff748f" rx="87.568" ry="87.568" transform="matrix(.16 -.987 .987 .16 -11.211 465.445)"/><path d="m267.928 266.011c-14.722 0-26.7-11.977-26.7-26.7 0-14.722 11.977-26.699 26.7-26.699 14.722 0 26.699 11.977 26.699 26.699s-11.978 26.7-26.699 26.7z" fill="#fff"/><path d="m139.995 249.311c0-42.923 10.047-83.506 27.906-119.575-29.73 27.162-48.41 66.227-48.41 109.574 0 35.851 12.777 68.773 34.014 94.455-8.756-26.58-13.51-54.963-13.51-84.454z" fill="#dedede"/><path d="m257.624 210.68c-4.781-53.041-37.912-98.499-76.363-134.135l-47.14 19.016-5.546 44.295c15.292 14.17 29.749 29.902 41.923 47.034 10.219 14.389 24.721 25.174 41.304 31.214l24.412 8.886c10.954 3.989 22.459-4.708 21.41-16.31z" fill="#c7c5cb"/><path d="m193.319 88.255c-3.942-4.011-7.967-7.919-12.057-11.71l-47.14 19.016-5.546 44.295c8.62 7.988 16.955 16.489 24.785 25.44 9.156-27.951 22.745-53.906 39.958-77.041z" fill="#a19dae"/><path d="m79.78 4.977c-17.037-9.304-38.261-5.273-50.657 9.66-14.514 17.485-11.646 43.017 5.183 56.987 7.388 6.133 49.815 27.064 94.27 68.232 16.927-20.281 37.644-45.143 52.685-63.311-35.259-32.683-74.996-57.111-101.481-71.568z" fill="#4f4c5f"/><g fill="#c7c5cb"><ellipse cx="65.835" cy="44.271" rx="13.963" ry="13.963" transform="matrix(.813 -.582 .582 .813 -13.466 46.616)"/><circle cx="113.958" cy="76.568" r="13.963"/></g></g></svg>