<svg height="512pt" viewBox="0 0 512.00008 512" width="512pt" xmlns="http://www.w3.org/2000/svg"><path d="m67.246094 444.753906-46.933594-16.585937-10.296875 30.625c-3.027344 24.996093 18.195313 46.21875 43.191406 43.1875l30.621094-10.292969zm0 0" fill="#596673"/><path d="m67.246094 444.753906-15.222656-5.378906 11.203124 31.707031-30.625 10.296875c-7.058593.855469-13.8125-.226562-19.808593-2.777344 6.484375 15.238282 22.472656 25.554688 40.414062 23.378907l30.621094-10.292969zm0 0" fill="#4b5866"/><path d="m492.871094 79.675781-60.546875-60.546875c-12.535157-12.535156-32.859375-12.535156-45.398438 0l-65.863281 65.863282 105.945312 105.941406 65.859376-65.863282c12.539062-12.535156 12.539062-32.859374.003906-45.394531zm0 0" fill="#fb7073"/><path d="m492.871094 79.675781-20.605469-20.601562c12.535156 12.535156 12.535156 32.859375 0 45.394531l-65.863281 65.863281 20.605468 20.605469 65.863282-65.863281c12.535156-12.539063 12.535156-32.863281 0-45.398438zm0 0" fill="#e16567"/><path d="m421.328125 344.183594-253.410156-253.414063c1.875-23.691406-6.226563-48.019531-24.347657-66.144531-19.894531-19.894531-47.277343-27.730469-73.074218-23.523438-6.597656 1.078126-9.152344 9.234376-4.425782 13.960938l27.480469 27.484375c6.96875 6.96875 6.96875 18.269531 0 25.238281l-25.765625 25.765625c-6.96875 6.96875-18.269531 6.96875-25.238281 0l-27.480469-27.480469c-4.734375-4.734374-12.890625-2.15625-13.96875 4.453126-4.28125 26.304687 3.960938 54.253906 24.734375 74.230468 19.203125 18.457032 45.261719 25.96875 70.039063 22.515625l248.78125 248.777344c-3.578125 25.285156 4.332031 51.878906 23.777344 71.324219 19.894531 19.894531 47.277343 27.734375 73.074218 23.523437 6.597656-1.074219 9.152344-9.234375 4.425782-13.960937l-27.480469-27.480469c-6.96875-6.96875-6.96875-18.269531 0-25.238281l25.765625-25.765625c6.96875-6.96875 18.269531-6.96875 25.238281 0l27.480469 27.480469c4.734375 4.734374 12.890625 2.15625 13.96875-4.453126 4.28125-26.304687-3.960938-54.253906-24.734375-74.230468-17.863281-17.171875-41.65625-24.851563-64.839844-23.0625zm0 0" fill="#d9d7d8"/><path d="m145.476562 216.875 74.269532-74.269531 149.648437 149.644531-74.273437 74.273438zm0 0" fill="#bab8b9"/><path d="m321.0625 84.992188-279.238281 279.242187 38.664062 67.277344 67.277344 38.664062 279.242187-279.238281zm0 0" fill="#87cde9"/><path d="m406.402344 170.332031-279.238282 279.238281-54.195312-31.144531 7.519531 13.085938 67.277344 38.664062 279.242187-279.238281zm0 0" fill="#7ab7d1"/><path d="m446.042969 171.898438-105.941407-105.941407c-10.515624-10.515625-27.558593-10.515625-38.074218 0-10.511719 10.511719-10.511719 27.558594 0 38.074219l105.941406 105.941406c10.515625 10.511719 27.5625 10.511719 38.074219 0 10.515625-10.515625 10.515625-27.5625 0-38.074218zm0 0" fill="#f9db69"/><path d="m446.042969 171.898438-20.605469-20.601563c10.515625 10.511719 10.515625 27.558594 0 38.070313-10.511719 10.511718-27.558594 10.511718-38.070312 0l20.601562 20.605468c10.515625 10.511719 27.5625 10.511719 38.074219 0 10.515625-10.515625 10.515625-27.5625 0-38.074218zm0 0" fill="#e5ca61"/><path d="m147.765625 470.175781-63.9375 21.511719-63.515625-63.519531 21.511719-63.933594zm0 0" fill="#f9db69"/><path d="m127.164062 449.570312-63.9375 21.511719-42.914062-42.914062 63.515625 63.519531 63.9375-21.511719zm0 0" fill="#e5ca61"/><g fill="#464c51"><path d="m182.914062 341.371094c-1.976562 0-3.953124-.753906-5.460937-2.261719l-9.785156-9.785156c-3.019531-3.019531-3.019531-7.910157 0-10.925781 3.015625-3.019532 7.90625-3.019532 10.925781 0l9.785156 9.785156c3.015625 3.015625 3.015625 7.910156 0 10.925781-1.507812 1.507813-3.484375 2.261719-5.464844 2.261719zm0 0"/><path d="m291.070312 233.21875c-1.976562 0-3.957031-.753906-5.464843-2.261719l-9.785157-9.785156c-3.019531-3.019531-3.019531-7.910156 0-10.925781 3.015626-3.019532 7.910157-3.019532 10.925782 0l9.785156 9.785156c3.019531 3.015625 3.019531 7.910156 0 10.925781-1.507812 1.507813-3.484375 2.261719-5.460938 2.261719zm0 0"/><path d="m224.542969 300.015625c-.699219 0-1.394531-.023437-2.097657-.070313-4.257812-.285156-7.476562-3.96875-7.1875-8.226562.285157-4.257812 3.953126-7.480469 8.226563-7.191406 4.804687.320312 9.644531-1.570313 13.269531-5.195313s5.519532-8.460937 5.195313-13.269531c-.285157-4.257812 2.933593-7.941406 7.191406-8.226562 4.25-.300782 7.941406 2.929687 8.226563 7.1875.625 9.257812-2.90625 18.457031-9.6875 25.234374-6.265626 6.265626-14.601563 9.757813-23.136719 9.757813zm0 0"/></g></svg>