<?xml version="1.0" encoding="iso-8859-1"?>
<!-- Generator: Adobe Illustrator 19.0.0, SVG Export Plug-In . SVG Version: 6.00 Build 0)  -->
<svg version="1.1" id="Capa_1" xmlns="http://www.w3.org/2000/svg" xmlns:xlink="http://www.w3.org/1999/xlink" x="0px" y="0px"
	 viewBox="0 0 512 512" style="enable-background:new 0 0 512 512;" xml:space="preserve">
<path style="fill:#4FBB74;" d="M23.704,170.728L5.485,132.022c-17.051-36.225,7.558-78.283,47.492-81.165l0,0
	c7.524-0.543,14.705-3.365,20.585-8.09l15.612-12.545c31.789-25.544,77.093-25.449,108.774,0.229l0,0
	c12.517,10.145,30.147,11.06,43.647,2.265l12.658-8.247c29.383-19.144,67.593-17.905,95.675,3.101l0,0
	c8.419,6.298,19.114,8.731,29.43,6.695l33.428-6.598c36.373-7.179,71.046,18.463,74.834,55.344l0,0
	c0.941,9.158,5.25,17.641,12.093,23.8l0,0c16.82,15.142,16.296,41.681-1.108,56.147l-26.506,22.032
	c-7.01,5.827-15.918,8.871-25.028,8.554L36.603,179.232C31.049,179.038,26.07,175.756,23.704,170.728z"/>
<circle style="fill:#EC8087;" cx="113.12" cy="76.77" r="63"/>
<circle style="opacity:0.1;enable-background:new    ;" cx="113.12" cy="76.77" r="37.36"/>
<circle style="fill:#EC8087;" cx="395.4" cy="76.77" r="63"/>
<circle style="opacity:0.1;enable-background:new    ;" cx="395.4" cy="76.77" r="37.36"/>
<path style="opacity:0.1;enable-background:new    ;" d="M437.362,52.929c-25.118-8.257-51.261-12.444-77.702-12.444
	c-26.442,0-52.585,4.187-77.702,12.443c-10.079,3.313-20.567,4.993-31.176,4.993s-21.097-1.68-31.175-4.992
	c-25.118-8.257-51.261-12.444-77.702-12.444c-26.442,0-52.585,4.187-77.702,12.443C29.926,64.196,6.544,95.365,5.113,131.163
	c0.129,0.286,0.238,0.574,0.372,0.859l18.219,38.706c2.366,5.027,7.345,8.31,12.899,8.504l410.469,14.314
	c9.11,0.318,18.018-2.727,25.028-8.554l15.895-13.212c5.499-11.427,8.529-24.092,8.529-37.13
	C496.523,97.401,472.748,64.56,437.362,52.929z"/>
<path style="fill:#D59C6E;" d="M121.691,501.08c-31.557,0-57.231-25.674-57.231-57.231V232.88l-1.865-0.908
	c-28.013-13.638-46.117-42.584-46.117-73.744c0-35.516,22.668-66.829,56.408-77.919c23.948-7.872,48.874-11.864,74.086-11.864
	c25.21,0,50.137,3.992,74.086,11.865c9.609,3.158,19.609,4.759,29.724,4.759c10.115,0,20.116-1.601,29.725-4.76
	c23.948-7.872,48.874-11.864,74.086-11.864c25.21,0,50.136,3.992,74.086,11.865c33.739,11.09,56.407,42.403,56.407,77.918
	c0,31.16-18.103,60.107-46.119,73.746l-1.863,0.907V443.85c0,31.557-25.674,57.231-57.231,57.231L121.691,501.08L121.691,501.08z"/>
<path style="fill:#F2DFA6;" d="M288.84,105.658L288.84,105.658c-24.721,8.126-51.393,8.126-76.114,0l0,0
	c-42.712-14.04-88.796-14.04-131.507,0l0,0c-22.708,7.464-38.057,28.666-38.057,52.57l0,0c0,21.171,12.08,40.487,31.115,49.754
	l4.641,2.26c7.479,3.641,12.226,11.231,12.226,19.549V443.85c0,16.871,13.677,30.548,30.548,30.548h258.183
	c16.871,0,30.548-13.677,30.548-30.548V229.791c0-8.319,4.746-15.908,12.226-19.549l4.641-2.26
	c19.035-9.267,31.115-28.583,31.115-49.754l0,0c0-23.904-15.349-45.105-38.057-52.57l0,0
	C377.636,91.618,331.552,91.618,288.84,105.658z"/>
<g style="opacity:0.1;">
	<circle cx="105.61" cy="163.91" r="7.51"/>
	<circle cx="176.13" cy="132.26" r="7.51"/>
	<circle cx="395.4" cy="139.78" r="7.51"/>
	<circle cx="293.26" cy="163" r="7.51"/>
	<circle cx="144.85" cy="366.98" r="7.51"/>
	<circle cx="250.78" cy="407.82" r="7.51"/>
	<circle cx="129.83" cy="434.68" r="7.51"/>
	<circle cx="339.91" cy="340.31" r="7.51"/>
	<circle cx="218.44" cy="318.38" r="7.51"/>
	<circle cx="359.7" cy="442.19" r="7.51"/>
</g>
<path style="opacity:0.1;enable-background:new    ;" d="M428.68,80.309c-4.785-1.573-9.611-2.984-14.468-4.246
	c18.562,15.452,29.885,38.6,29.885,63.856c0,24.988-12.215,48.572-31.382,64.176c-10.453,8.51-16.551,21.247-16.593,34.727
	l-0.651,206.576c0,26.362-17.685,48.656-41.809,55.682h26.213c31.557,0,57.231-25.674,57.231-57.231V232.88l1.863-0.907
	c28.016-13.639,46.119-42.586,46.119-73.746C485.087,122.712,462.419,91.399,428.68,80.309z"/>
<g>
	<path style="fill:#394049;" d="M152.728,235.707c-4.143,0-7.5-3.358-7.5-7.5v-10.811c0-4.142,3.357-7.5,7.5-7.5s7.5,3.358,7.5,7.5
		v10.811C160.228,232.35,156.871,235.707,152.728,235.707z"/>
	<path style="fill:#394049;" d="M348.837,235.707c-4.143,0-7.5-3.358-7.5-7.5v-10.811c0-4.142,3.357-7.5,7.5-7.5s7.5,3.358,7.5,7.5
		v10.811C356.337,232.35,352.979,235.707,348.837,235.707z"/>
	<path style="fill:#394049;" d="M250.783,259.592c-11.647,0-22.205-6.89-26.896-17.553c-1.668-3.792,0.054-8.217,3.845-9.885
		c3.792-1.667,8.217,0.054,9.886,3.845c2.296,5.22,7.465,8.593,13.166,8.593c5.7,0,10.868-3.373,13.166-8.593
		c1.668-3.791,6.093-5.513,9.886-3.843c3.791,1.669,5.512,6.094,3.843,9.886C272.985,252.704,262.429,259.592,250.783,259.592z"/>
</g>
<g>
</g>
<g>
</g>
<g>
</g>
<g>
</g>
<g>
</g>
<g>
</g>
<g>
</g>
<g>
</g>
<g>
</g>
<g>
</g>
<g>
</g>
<g>
</g>
<g>
</g>
<g>
</g>
<g>
</g>
</svg>
