<svg id="Capa_1" enable-background="new 0 0 512 512" height="512" viewBox="0 0 512 512" width="512" xmlns="http://www.w3.org/2000/svg"><g><path d="m234.469 232.432c-.143 0-.285 0-.428-.001-18.133-.094-32.756-14.87-32.662-33.002.089-17.244 13.715-32.542 33.112-32.662 9.533 0 26.162-6.381 40.299-20.445 11.059-11.001 24.241-30.543 24.241-61.169 0-18.133 14.7-32.833 32.833-32.833s32.833 14.699 32.833 32.833c0 41.499-15.483 79.755-43.594 107.722-24.558 24.428-57.712 39.557-86.634 39.557z" fill="#f4d8a1"/><path d="m229.877 154.397c0-6.971-2.603-13.331-6.888-18.169-2.013-2.274-3.202-5.144-3.386-8.176-.392-6.451-3.048-12.789-7.977-17.718s-11.267-7.586-17.718-7.977c-3.031-.184-5.902-1.373-8.175-3.386-4.838-4.284-11.198-6.888-18.169-6.888s-13.331 2.603-18.169 6.887c-2.274 2.013-5.144 3.203-8.176 3.386-6.451.391-12.789 3.048-17.718 7.977s-7.586 11.267-7.977 17.718c-.184 3.031-1.373 5.902-3.386 8.176-4.285 4.838-6.888 11.198-6.888 18.169s2.603 13.331 6.888 18.169c2.013 2.274 3.202 5.144 3.386 8.175.392 6.451 3.048 12.789 7.977 17.718s11.267 7.586 17.718 7.977c3.031.184 5.902 1.373 8.176 3.386 4.838 4.284 11.198 6.888 18.169 6.888s13.331-2.603 18.169-6.888c2.274-2.013 5.144-3.202 8.175-3.386 6.451-.392 12.789-3.048 17.718-7.977s7.586-11.267 7.977-17.718c.184-3.031 1.373-5.902 3.386-8.175 4.285-4.837 6.888-11.197 6.888-18.168z" fill="#e7c7af"/><path d="m185.732 209.823c2.273-2.013 5.144-3.202 8.175-3.386 6.451-.391 12.789-3.048 17.718-7.977 1.952-1.952 3.532-4.13 4.772-6.443-60.661-5.934-72.76-63.276-72.085-90.219-1.001.301-2.037.495-3.095.56-6.451.391-12.789 3.048-17.718 7.977s-7.586 11.267-7.977 17.718c-.184 3.031-1.373 5.902-3.386 8.176-4.285 4.838-6.888 11.198-6.888 18.169s2.603 13.331 6.888 18.169c2.013 2.274 3.202 5.144 3.386 8.175.392 6.451 3.048 12.789 7.977 17.718s11.267 7.586 17.718 7.977c3.031.184 5.902 1.373 8.176 3.386 4.838 4.284 11.198 6.887 18.169 6.887 6.972.001 13.332-2.602 18.17-6.887z" fill="#e1ac9a"/><path d="m385.731 252.092c-3.367 0-6.79-.478-10.183-1.483-33.092-9.797-75.548-15.193-119.548-15.193-43.999 0-86.456 5.395-119.549 15.193-18.967 5.619-38.896-5.208-44.511-24.176-5.616-18.967 5.208-38.896 24.176-44.512 39.512-11.697 89.19-18.14 139.884-18.14s100.373 6.442 139.884 18.14c18.967 5.615 29.792 25.544 24.176 44.512-4.611 15.574-18.873 25.659-34.329 25.659z" fill="#fbf1cf"/><path d="m460.834 218.139c0-6.971-2.603-13.331-6.888-18.169-2.013-2.274-3.202-5.144-3.386-8.175-.391-6.451-3.048-12.789-7.977-17.718s-11.267-7.586-17.718-7.977c-3.031-.184-5.902-1.373-8.176-3.386-4.838-4.284-11.198-6.888-18.169-6.888s-13.331 2.603-18.169 6.887c-2.274 2.013-5.144 3.202-8.176 3.386-6.451.391-12.789 3.048-17.718 7.977s-7.586 11.267-7.977 17.718c-.184 3.031-1.373 5.902-3.387 8.176-4.284 4.838-6.888 11.198-6.888 18.169s2.603 13.331 6.888 18.169c2.013 2.274 3.202 5.144 3.386 8.175.392 6.451 3.048 12.789 7.977 17.718s11.267 7.586 17.718 7.977c3.031.184 5.902 1.373 8.176 3.386 4.838 4.284 11.198 6.888 18.169 6.888s13.331-2.603 18.169-6.888c2.273-2.013 5.144-3.202 8.175-3.386 6.451-.392 12.789-3.048 17.718-7.977s7.586-11.267 7.977-17.718c.184-3.031 1.373-5.902 3.386-8.175 4.287-4.838 6.89-11.198 6.89-18.169z" fill="#e7c7af"/><path d="m416.689 273.565c2.273-2.013 5.144-3.202 8.175-3.386 6.451-.391 12.789-3.048 17.718-7.977 1.952-1.952 3.532-4.13 4.772-6.443-60.661-5.934-72.76-63.276-72.085-90.219-1.001.301-2.037.495-3.095.56-6.451.391-12.789 3.048-17.718 7.977s-7.586 11.267-7.977 17.718c-.184 3.031-1.373 5.902-3.386 8.175-4.284 4.838-6.888 11.198-6.888 18.169s2.603 13.331 6.888 18.169c2.013 2.273 3.202 5.144 3.386 8.175.392 6.451 3.048 12.789 7.977 17.718s11.267 7.586 17.718 7.977c3.031.184 5.902 1.373 8.176 3.387 4.838 4.284 11.198 6.888 18.169 6.888 6.972 0 13.332-2.603 18.17-6.888z" fill="#e1ac9a"/><path d="m417.583 308.106c-3.367 0-6.789-.478-10.183-1.483-42.006-12.436-95.774-19.285-151.4-19.285s-109.394 6.849-151.4 19.285c-18.969 5.615-38.897-5.208-44.512-24.176-5.616-18.967 5.208-38.896 24.176-44.511 48.426-14.338 109.416-22.233 171.736-22.233s123.31 7.896 171.736 22.233c18.967 5.615 29.792 25.544 24.176 44.511-4.611 15.574-18.873 25.659-34.329 25.659z" fill="#f4d8a1"/><path d="m438.569 366.886c-3.367 0-6.789-.478-10.183-1.483-47.879-14.175-109.1-21.981-172.386-21.981-63.285 0-124.507 7.807-172.387 21.981-18.966 5.617-38.896-5.209-44.511-24.176s5.208-38.896 24.176-44.511c54.299-16.077 122.742-24.93 192.722-24.93 69.979 0 138.423 8.853 192.722 24.929 18.967 5.615 29.791 25.544 24.176 44.511-4.612 15.575-18.873 25.66-34.329 25.66z" fill="#fbf1cf"/><path d="m377.136 459.68h-242.272c-35.675 0-69.294-16.7-90.847-45.129l-39.379-51.943c-11.299-14.904-.669-36.302 18.033-36.302h466.657c18.702 0 29.332 21.398 18.033 36.302l-39.379 51.943c-21.552 28.429-55.171 45.129-90.846 45.129z" fill="#8de1ce"/><path d="m22.671 326.306c-18.702 0-29.332 21.398-18.033 36.302l39.379 51.943c21.553 28.429 55.171 45.129 90.847 45.129h31.86c-32.587-23.747-49.79-72.123-34.765-133.374z" fill="#58d1b4"/><path d="m256 151.842c-16.373 0-32.65.664-48.54 1.95-14.708 1.19-26.054 13.437-26.054 28.193v70.644c0 17.567 14.241 31.807 31.807 31.807 17.567 0 31.807-14.241 31.807-31.807v-22.478c5.779 5.944 13.856 9.641 22.801 9.641 17.567 0 31.807-14.241 31.807-31.807v-27.653c0-15.325-12.207-27.858-27.527-28.272-5.348-.144-10.719-.218-16.101-.218z" fill="#e26e7e"/><g><g><path d="m204.173 411.691c0 13.329-13.568 24.133-30.305 24.133s-30.305-10.805-30.305-24.133c0-13.329 13.568-24.134 30.305-24.134 16.737.001 30.305 10.806 30.305 24.134z" fill="#fff"/><path d="m307.827 411.691c0 13.329 13.568 24.133 30.305 24.133s30.305-10.805 30.305-24.133c0-13.329-13.568-24.134-30.305-24.134-16.737.001-30.305 10.806-30.305 24.134z" fill="#fff"/><path d="m280.433 393.149c0-15.1-10.939-16.519-24.433-16.519s-24.434 1.419-24.434 16.519 10.939 27.341 24.434 27.341c13.494-.001 24.433-12.241 24.433-27.341z" fill="#4e5660"/></g><g fill="#4e5660"><path d="m178.934 390.379c-4.142 0-7.5-3.358-7.5-7.5v-12.375c0-4.142 3.358-7.5 7.5-7.5s7.5 3.358 7.5 7.5v12.375c0 4.142-3.358 7.5-7.5 7.5z"/><path d="m333.066 390.379c-4.143 0-7.5-3.358-7.5-7.5v-12.375c0-4.142 3.357-7.5 7.5-7.5s7.5 3.358 7.5 7.5v12.375c0 4.142-3.357 7.5-7.5 7.5z"/></g></g></g></svg>