<svg height="511pt" viewBox="-5 0 511 511.99957" width="511pt" xmlns="http://www.w3.org/2000/svg"><path d="m501.679688 113.917969c0 41.136719-48.703126 116.789062-82.417969 164.230469-15.402344 21.671874-47.59375 21.671874-62.992188 0-33.714843-47.441407-82.421875-123.09375-82.421875-164.230469 0-62.914063 51-113.917969 113.917969-113.917969 62.914063 0 113.914063 51.003906 113.914063 113.917969zm0 0" fill="#b2e59c"/><path d="m368.632812 103.007812c0-41.226562 21.910157-77.34375 54.714844-97.339843-11.195312-3.675781-23.160156-5.667969-35.582031-5.667969-62.917969 0-113.917969 51.003906-113.917969 113.917969 0 41.136719 48.703125 116.789062 82.421875 164.230469 15.398438 21.671874 47.589844 21.671874 62.988281 0 6.15625-8.660157 12.8125-18.265626 19.578126-28.425782-32.125-46.980468-70.203126-110.339844-70.203126-146.714844zm0 0" fill="#9ad880"/><path d="m440.804688 105.0625c0 29.292969-23.746094 53.039062-53.039063 53.039062s-53.039063-23.746093-53.039063-53.039062 23.746094-53.039062 53.039063-53.039062 53.039063 23.746093 53.039063 53.039062zm0 0" fill="#ccf8ff"/><path d="m228.332031 275.855469c0 41.136719-48.703125 116.789062-82.417969 164.234375-15.402343 21.671875-47.589843 21.671875-62.992187 0-33.71875-47.445313-82.421875-123.097656-82.421875-164.234375 0-62.914063 51.003906-113.917969 113.917969-113.917969 62.914062 0 113.914062 51.003906 113.914062 113.917969zm0 0" fill="#ff929f"/><path d="m95.285156 264.949219c0-41.230469 21.910156-77.34375 54.714844-97.34375-11.195312-3.675781-23.160156-5.667969-35.582031-5.667969-62.914063 0-113.917969 51.003906-113.917969 113.917969 0 41.136719 48.703125 116.789062 82.421875 164.234375 15.398437 21.671875 47.589844 21.671875 62.988281 0 6.15625-8.664063 12.8125-18.265625 19.578125-28.425782-32.125-46.980468-70.203125-110.339843-70.203125-146.714843zm0 0" fill="#ff737d"/><path d="m167.453125 267c0 29.292969-23.746094 53.039062-53.035156 53.039062-29.292969 0-53.039063-23.746093-53.039063-53.039062s23.746094-53.039062 53.039063-53.039062c29.289062 0 53.035156 23.746093 53.035156 53.039062zm0 0" fill="#ccf8ff"/><path d="m107.054688 214.46875c-25.804688 3.585938-45.675782 25.738281-45.675782 52.53125 0 28.238281 22.074219 51.324219 49.90625 52.949219-9.671875-20.855469-16-40.175781-16-55 0-18.125 4.238282-35.269531 11.769532-50.480469zm0 0" fill="#abebf4"/><path d="m380.402344 52.527344c-25.804688 3.585937-45.675782 25.742187-45.675782 52.535156 0 28.238281 22.074219 51.324219 49.90625 52.945312-9.671874-20.855468-16-40.171874-16-55 0-18.121093 4.238282-35.265624 11.769532-50.480468zm0 0" fill="#abebf4"/><g fill="#d8d7da"><path d="m224.355469 495.191406c-.859375-10.082031 6.613281-18.957031 16.699219-19.816406 4.3125-.371094 8.75-.945312 13.183593-1.707031 9.980469-1.726563 19.453125 4.972656 21.171875 14.945312 1.71875 9.972657-4.976562 19.453125-14.949218 21.171875-5.460938.941406-10.941407 1.636719-16.289063 2.105469-13.347656 1.167969-19-7.144531-19.816406-16.699219zm0 0"/><path d="m177.96875 504.070312c-5.359375-1.773437-10.601562-4.046874-15.675781-6.503906-9.109375-4.410156-12.917969-15.371094-8.507813-24.476562 4.410156-9.109375 15.371094-12.917969 24.480469-8.507813 3.808594 1.84375 7.769531 3.484375 11.769531 4.878907 9.554688 3.335937 14.601563 13.78125 11.269532 23.339843-2.636719 7.558594-9.894532 15.707031-23.335938 11.269531zm0 0"/><path d="m297.214844 481.402344c-4.316406-9.15625-.398438-20.074219 8.757812-24.390625 4.089844-1.929688 8.050782-4 11.773438-6.164063 8.753906-5.078125 19.96875-2.101562 25.046875 6.652344 5.082031 8.75 2.101562 19.964844-6.652344 25.046875-4.617187 2.679687-9.492187 5.28125-14.539063 7.613281-13.460937 6.222656-21.261718-2.128906-24.386718-8.757812zm0 0"/><path d="m360.25 442.226562c-8.140625-6.011718-10.546875-17.082031-4.863281-25.457031 2.339843-3.441406 4.488281-7.078125 6.382812-10.800781 4.59375-9.015625 15.625-12.609375 24.644531-8.015625 9.019532 4.589844 12.609376 15.625 8.015626 24.644531-2.589844 5.085938-5.523438 10.054688-8.726563 14.769532-3.542969 5.214843-15.410156 12.273437-25.453125 4.859374zm0 0"/><path d="m392.15625 375.320312c-.21875 0-.433594-.003906-.652344-.007812-10.117187-.355469-18.027344-8.84375-17.671875-18.957031.0625-1.75.023438-10.640625-.105469-13.316407-.5-10.105468 7.289063-18.707031 17.398438-19.207031 10.109375-.484375 18.707031 7.289063 19.203125 17.398438.164063 3.273437.207031 14.238281.128906 16.410156-.347656 9.894531-8.476562 17.679687-18.300781 17.679687zm0 0"/></g></svg>