<svg height="512pt" viewBox="-103 0 512 512" width="512pt" xmlns="http://www.w3.org/2000/svg"><path d="m266.0625 512h-226.140625c-22.046875 0-39.921875-17.875-39.921875-39.921875v-355.8125c0-22.046875 17.875-39.921875 39.921875-39.921875h226.136719c22.050781 0 39.925781 17.875 39.925781 39.921875v355.8125c0 22.046875-17.875 39.921875-39.921875 39.921875zm0 0" fill="#7bd0a7"/><path d="m88.980469 76.34375h-49.058594c-22.046875 0-39.921875 17.875-39.921875 39.921875v355.8125c0 22.046875 17.875 39.921875 39.921875 39.921875h173.445313c-152.25-64.027344-162.296876-308.972656-124.386719-435.65625zm0 0" fill="#68bf97"/><path d="m226.191406 167.898438h-146.398437c-11.179688 0-20.242188 9.0625-20.242188 20.242187v157.429687c0 11.179688 9.0625 20.242188 20.242188 20.242188h146.398437c11.179688 0 20.242188-9.0625 20.242188-20.242188v-157.429687c0-11.179687-9.0625-20.242187-20.242188-20.242187zm0 0" fill="#fff"/><path d="m79.792969 365.8125h12.550781c-20.394531-62.253906-25.273438-133.46875-20.054688-196.460938-7.460937 2.984376-12.738281 10.261719-12.738281 18.789063v157.429687c0 11.179688 9.0625 20.242188 20.242188 20.242188zm0 0" fill="#f0f0ef"/><path d="m76.46875 365.515625c1.085938.179687 2.1875.296875 3.324219.296875h146.398437c1.132813 0 2.238282-.117188 3.324219-.296875-5.902344-18.480469-18.304687-34.058594-34.53125-44.03125 15.277344-12.289063 25.0625-31.125 25.0625-52.257813 0-37.03125-30.023437-67.054687-67.054687-67.054687s-67.054688 30.023437-67.054688 67.054687c0 21.132813 9.785156 39.96875 25.0625 52.257813-16.226562 9.972656-28.628906 25.550781-34.53125 44.03125zm0 0" fill="#f7c67b"/><path d="m92.34375 365.8125c-2.207031-6.742188-4.234375-13.589844-6.085938-20.519531-4.148437 6.1875-7.476562 12.976562-9.789062 20.222656 1.085938.179687 2.191406.296875 3.324219.296875zm0 0" fill="#ebb460"/><path d="m125.710938 277.085938c0-7.015626-7.144532-12.703126-15.953126-12.703126-8.808593 0-15.953124 5.6875-15.953124 12.703126 0 7.015624 7.144531 12.703124 15.953124 12.703124 8.808594 0 15.953126-5.6875 15.953126-12.703124zm0 0" fill="#eb8d9a"/><path d="m212.179688 277.085938c0-7.015626-7.144532-12.703126-15.953126-12.703126-8.8125 0-15.953124 5.6875-15.953124 12.703126 0 7.015624 7.140624 12.703124 15.953124 12.703124 8.808594 0 15.953126-5.6875 15.953126-12.703124zm0 0" fill="#eb8d9a"/><g fill="#495059"><path d="m119.054688 271.914062c-4.140626 0-7.5-3.355468-7.5-7.5v-5.632812c0-4.144531 3.359374-7.5 7.5-7.5 4.144531 0 7.5 3.355469 7.5 7.5v5.632812c0 4.144532-3.355469 7.5-7.5 7.5zm0 0"/><path d="m186.929688 271.914062c-4.144532 0-7.5-3.355468-7.5-7.5v-5.632812c0-4.144531 3.355468-7.5 7.5-7.5 4.140624 0 7.5 3.355469 7.5 7.5v5.632812c0 4.144532-3.359376 7.5-7.5 7.5zm0 0"/><path d="m152.992188 276.238281c-5.597657 0-10.917969-2.421875-14.601563-6.644531-2.722656-3.125-2.398437-7.859375.726563-10.582031 3.121093-2.722657 7.859374-2.398438 10.582031.726562.488281.5625 1.570312 1.503907 3.292969 1.503907 1.726562 0 2.804687-.941407 3.292968-1.503907 2.722656-3.125 7.460938-3.449219 10.582032-.726562 3.125 2.722656 3.449218 7.457031.726562 10.582031-3.683594 4.222656-9.003906 6.644531-14.601562 6.644531zm0 0"/><path d="m305.984375 137.917969h-305.984375v-21.648438c0-22.050781 17.875-39.925781 39.925781-39.925781h226.136719c22.046875 0 39.921875 17.875 39.921875 39.925781zm0 0"/></g><path d="m39.921875 76.34375c-22.046875 0-39.921875 17.875-39.921875 39.921875v21.652344h75.8125c3.191406-22.398438 7.675781-43.226563 13.167969-61.574219zm0 0" fill="#41464f"/><path d="m166.566406 0h-27.152344c-8.882812 0-16.367187 6.648438-17.410156 15.472656l-8.527344 72.066406c-1.234374 10.425782 6.914063 19.59375 17.414063 19.59375h44.203125c10.5 0 18.648438-9.167968 17.414062-19.59375l-8.527343-72.066406c-1.042969-8.824218-8.527344-15.472656-17.414063-15.472656zm0 0" fill="#80bbe6"/><path d="m163.152344 33.703125c0 5.609375-4.550782 10.160156-10.160156 10.160156-5.613282 0-10.160157-4.550781-10.160157-10.160156 0-5.613281 4.546875-10.160156 10.160157-10.160156 5.609374 0 10.160156 4.546875 10.160156 10.160156zm0 0" fill="#495059"/><path d="m246.433594 459.910156h-69.4375c-4.144532 0-7.5-3.355468-7.5-7.5 0-4.140625 3.355468-7.5 7.5-7.5h69.4375c4.140625 0 7.5 3.359375 7.5 7.5 0 4.144532-3.359375 7.5-7.5 7.5zm0 0" fill="#495059"/><path d="m246.433594 427.175781h-69.4375c-4.144532 0-7.5-3.359375-7.5-7.5 0-4.144531 3.355468-7.5 7.5-7.5h69.4375c4.140625 0 7.5 3.355469 7.5 7.5 0 4.140625-3.359375 7.5-7.5 7.5zm0 0" fill="#495059"/><path d="m122.191406 477.722656h-43.144531c-11.105469 0-20.105469-9-20.105469-20.105468v-43.148438c0-11.105469 9-20.105469 20.105469-20.105469h43.144531c11.105469 0 20.105469 9 20.105469 20.105469v43.148438c0 11.105468-9 20.105468-20.105469 20.105468zm0 0" fill="#fff"/><path d="m79.046875 477.722656h43.144531c10.632813 0 19.3125-8.257812 20.035156-18.703125-15.945312-18.894531-28.867187-40.824219-39.121093-64.65625h-24.0625c-11.101563 0-20.105469 9-20.105469 20.105469v43.148438c.003906 11.105468 9.003906 20.105468 20.109375 20.105468zm0 0" fill="#f0f0ef"/><path d="m58.941406 436.042969v21.574219c0 11.105468 9 20.105468 20.105469 20.105468h43.144531c11.105469 0 20.105469-9 20.105469-20.105468v-21.574219zm0 0" fill="#7397da"/><path d="m79.046875 477.722656h43.144531c10.632813 0 19.3125-8.257812 20.035156-18.703125-6.105468-7.234375-11.761718-14.917969-17-22.976562h-66.285156v21.574219c0 11.105468 9 20.105468 20.105469 20.105468zm0 0" fill="#6988c4"/></svg>