<svg height="512pt" viewBox="0 0 512 512" width="512pt" xmlns="http://www.w3.org/2000/svg"><path d="m430.558594 512h-349.117188c-44.980468 0-81.441406-36.460938-81.441406-81.441406v-349.117188c0-44.980468 36.460938-81.441406 81.441406-81.441406h349.117188c44.980468 0 81.441406 36.460938 81.441406 81.441406v349.117188c0 44.980468-36.460938 81.441406-81.441406 81.441406zm0 0" fill="#ccf8ff"/><path d="m136.339844 430.558594v-349.117188c0-44.980468 36.460937-81.441406 81.4375-81.441406h-136.335938c-44.980468 0-81.441406 36.460938-81.441406 81.441406v349.117188c0 44.980468 36.460938 81.441406 81.441406 81.441406h136.335938c-44.976563 0-81.4375-36.460938-81.4375-81.441406zm0 0" fill="#abebf4"/><path d="m430.558594 0h-349.117188c-44.980468 0-81.441406 36.460938-81.441406 81.441406v112.734375h512v-112.734375c0-44.980468-36.460938-81.441406-81.441406-81.441406zm0 0" fill="#ffb0d0"/><path d="m217.777344 0h-136.335938c-44.980468 0-81.441406 36.460938-81.441406 81.441406v112.734375h136.339844v-112.734375c0-44.980468 36.460937-81.441406 81.4375-81.441406zm0 0" fill="#ff97bd"/><path d="m81.441406 0c-44.980468 0-81.441406 36.460938-81.441406 81.441406v349.117188c0 44.980468 36.460938 81.441406 81.441406 81.441406zm0 0" fill="#65d1b2"/><path d="m430.558594 0c44.980468 0 81.441406 36.460938 81.441406 81.441406v349.117188c0 44.980468-36.460938 81.441406-81.441406 81.441406zm0 0" fill="#71e2c5"/><path d="m293.800781 133.226562c-24.074219-11.234374-51.933593-12.0625-75.601562 0-19.964844 10.171876-44.386719 2.230469-54.554688-17.726562s-2.234375-44.382812 17.726563-54.554688c46.730468-23.808593 102.527344-23.808593 149.257812 0 19.957032 10.171876 27.894532 34.597657 17.726563 54.554688-7.164063 14.0625-27.457031 30.371094-54.554688 17.726562zm0 0" fill="#fff"/><g fill="#d8d7da"><path d="m256 75.605469c-4.265625 0-7.726562 3.457031-7.726562 7.726562v41.433594c5.132812-.417969 10.304687-.363281 15.453124.144531v-41.578125c0-4.269531-3.460937-7.726562-7.726562-7.726562zm0 0"/><path d="m200.324219 92.679688c-3.984375 1.523437-5.976563 5.992187-4.449219 9.976562l13.015625 33.964844c3.164063-.730469 6.289063-1.855469 9.308594-3.394532 1.660156-.84375 3.339843-1.628906 5.039062-2.347656l-12.933593-33.75c-1.523438-3.984375-5.992188-5.980468-9.980469-4.449218zm0 0"/><path d="m311.675781 92.679688c-3.984375-1.53125-8.453125.464843-9.980469 4.449218l-12.996093 33.898438c1.71875.679687 3.417969 1.414062 5.097656 2.199218 3.214844 1.5 6.324219 2.589844 9.335937 3.324219l12.988282-33.894531c1.53125-3.984375-.460938-8.453125-4.445313-9.976562zm0 0"/></g><path d="m339.089844 349.65625c-4.265625 0-7.726563-3.457031-7.726563-7.726562v-12.824219c0-4.269531 3.460938-7.726563 7.726563-7.726563 4.269531 0 7.726562 3.457032 7.726562 7.726563v12.824219c0 4.269531-3.457031 7.726562-7.726562 7.726562zm0 0" fill="#57565c"/><path d="m172.910156 349.65625c-4.269531 0-7.726562-3.457031-7.726562-7.726562v-12.824219c0-4.269531 3.457031-7.726563 7.726562-7.726563 4.265625 0 7.726563 3.457032 7.726563 7.726563v12.824219c0 4.269531-3.460938 7.726562-7.726563 7.726562zm0 0" fill="#57565c"/><path d="m256 357.746094c-10 0-20-3.234375-28.34375-9.707032-3.371094-2.613281-3.984375-7.46875-1.371094-10.839843 2.613282-3.375 7.46875-3.984375 10.839844-1.371094 11.113281 8.621094 26.636719 8.621094 37.746094 0 3.371094-2.613281 8.226562-2.003906 10.839844 1.371094 2.617187 3.371093 2.003906 8.226562-1.367188 10.839843-8.34375 6.472657-18.34375 9.707032-28.34375 9.707032zm0 0" fill="#57565c"/></svg>